<?xml version="1.0" encoding="utf-8"?>
<!-- Generator: Adobe Illustrator 28.1.0, SVG Export Plug-In . SVG Version: 6.00 Build 0)  -->
<svg version="1.1" id="Capa_2_00000067237285234377064650000000548187551930032786_"
	 xmlns="http://www.w3.org/2000/svg" xmlns:xlink="http://www.w3.org/1999/xlink" x="0px" y="0px" viewBox="0 0 698 653.6"
	 style="enable-background:new 0 0 698 653.6;" xml:space="preserve">
<style type="text/css">
	.st0{fill:#FFFFFF;stroke:#000000;stroke-miterlimit:10;}
	.st1{fill:#12495C;}
	.st2{fill:#009BD0;}
</style>
<rect y="0" class="st0" width="698" height="653.6"/>
<g>
	<g>
		<path class="st1" d="M438.4,131.6h-82.8c-55.5,0-100.6,44.5-101.6,99.7c0.5-9.4,8.3-16.9,17.8-16.9h83.8c0,6.4-0.6,12.7-1.7,18.8
			h84.5v82.8h18.8v17.9c0,46.3-37.5,83.8-83.8,83.8h65c56.1,0,101.6-45.5,101.6-101.6v-82.8C540,177.1,494.5,131.6,438.4,131.6z"/>
	</g>
	<path class="st2" d="M355.5,316.1c-56.1,0-101.6,45.5-101.6,101.6v101.6c56.1,0,101.6-45.5,101.6-101.6h17.9
		c46.3,0,83.8-37.5,83.8-83.8v-17.9H355.5z"/>
	<path class="st2" d="M355.5,214.4h-83.8c-9.9,0-17.9,8-17.9,17.9v83.8h-80c-9.9,0-17.9,8-17.9,17.9v83.8
		c56.1,0,101.6-45.5,101.6-101.6l1.4-0.1C313.8,314.3,355.5,269.5,355.5,214.4z"/>
</g>
</svg>
