<?xml version="1.0" encoding="UTF-8"?>
<svg id="Capa_2" xmlns="http://www.w3.org/2000/svg" version="1.1" viewBox="0 0 698 653.6">
  <!-- Generator: Adobe Illustrator 29.1.0, SVG Export Plug-In . SVG Version: 2.1.0 Build 142)  -->
  <defs>
    <style>
      .st0 {
        fill: #29d18b;
      }

      .st1 {
        fill: #004ba4;
      }

      .st2 {
        fill: #fff;
        stroke: #000;
        stroke-miterlimit: 10;
      }

      .st3 {
        fill: #00bed9;
      }
    </style>
  </defs>
  <rect class="st2" y="0" width="698" height="653.6"/>
  <g>
    <circle class="st0" cx="145.3" cy="315.1" r="24"/>
    <path class="st3" d="M521.6,183.2c-3.7-1.8-9.4-3.9-15.5-3.2-2.6.3-5.3,1.1-8,2.7-7.7,4.5-11.4,13.7-9.3,22.8,2.5,10.9,12,27.8,43,46.6.5.3,1.2.5,1.8.4.5,0,1-.2,1.4-.6h0c.9-.7,22.9-18.1,34.8-37.5,5.5-9,7.9-19.3,6.7-29-1.4-12-7.5-20.3-17.5-23.9-4.1-1.5-8.4-2-12.8-1.5-1.5.2-2.9.5-4.4.9-7,1.9-18.2,7.3-20.2,22.1Z"/>
    <path class="st1" d="M546.4,266.4c-3.1,2.5-6.8,4-10.8,4.5-4.7.5-9.5-.5-13.5-3-5.3-3.2-10.1-6.5-14.6-9.8-9.1,20.9-24.7,39.9-42.9,52.3-49.7,33.8-111.3,37.8-170.9,27.7-.2-9.5.3-19,1.6-28.5,8.8-73.6,72.1-152.6,150.4-150.1,13.8,0,27.7,2.9,39.8,9.3,1-.7,2.1-1.4,3.1-2.1,4.7-2.8,9.8-4.5,15.2-5.1,2.3-.3,4.5-.3,6.7-.2,5.9-8.7,15-15.1,26.3-18.2,2.3-.6,4.7-1.1,7.1-1.4,6.5-.8,12.8-.1,19,1.8-14.7-25.2-36.6-45.8-63.1-59.5-73.5-37.1-161.1,7-209.2,64.6-41.1,47.9-62,111.4-59.3,173.9-8.9-2.9-17.6-5.9-26-9.1-24.9-8.8-39.8,26.2-16.2,38,16,7.5,32.4,14.1,49.3,19.8,1.3,5.3,2.9,10.6,4.6,15.8,23.8,75.2,92.2,151.4,154.9,193.8,12.2,8.2,25.6-8.4,15.3-18.6-33.9-33.8-75-85.7-94.7-126.6-7.7-15.7-13.8-32.2-18.1-49,38.7,6.2,78.7,6,116.9-4.8,66.3-18.5,126.5-66,151.6-132,.9-2.3,1.7-4.7,2.4-7.1-11.5,12.9-23.2,22.2-24.9,23.5Z"/>
  </g>
</svg>