<?xml version="1.0" encoding="UTF-8"?>
<svg id="Capa_2" xmlns="http://www.w3.org/2000/svg" version="1.1" viewBox="0 0 56.2 43.5">
  <!-- Generator: Adobe Illustrator 29.1.0, SVG Export Plug-In . SVG Version: 2.1.0 Build 142)  -->
  <defs>
    <style>
      .st0 {
        fill: #0fbcd6;
      }
    </style>
  </defs>
  <g id="Capa_1-2">
    <g id="Capa_1-21" data-name="Capa_1-2">
      <path class="st0" d="M51,43.5H5.2c-2.9,0-5.2-2.3-5.2-5.2V5.2C0,2.3,2.3,0,5.2,0h45.8C53.9,0,56.2,2.3,56.2,5.2v33.1c0,2.8-2.4,5.2-5.2,5.2h0ZM6.4,39.7h43.3l-15-15.3-3.4,3.4c-1.8,1.7-4.7,1.7-6.5,0l-3.4-3.4-15,15.3h0ZM37.3,21.7l15,15.2V6.5l-15,15.2h0ZM3.8,6.5v30.5l15-15.2L3.8,6.5ZM6.4,3.8l21.1,21.4c.1.2.3.3.5.3s.4-.1.5-.3L49.7,3.8H6.4Z"/>
    </g>
  </g>
</svg>