<?xml version="1.0" encoding="UTF-8"?>
<svg id="Capa_1" xmlns="http://www.w3.org/2000/svg" version="1.1" viewBox="0 0 36.2 68.5">
  <!-- Generator: Adobe Illustrator 29.1.0, SVG Export Plug-In . SVG Version: 2.1.0 Build 142)  -->
  <defs>
    <style>
      .st0 {
        fill: #0fbcd6;
      }
    </style>
  </defs>
  <path id="Trazado_9" class="st0" d="M36.1,30.2l-.9,7c0,1.2-1.1,2-2.3,2h-11.2v29.1c-1.2,0-2.4.2-3.6.2-2.7,0-5.3-.3-8-.8v-28.5H1.4c-.8,0-1.4-.7-1.4-1.5v-8.7c0-.8.6-1.4,1.4-1.5h8.7v-13C10.1,6.5,16.6,0,24.6,0h10.1C35.5,0,36.1.7,36.1,1.5v8.7c0,.8-.6,1.4-1.4,1.5h-7.2c-3.2,0-5.8,2.6-5.8,5.8v10.2h12.1c1.3,0,2.3,1,2.3,2.3.1,0,0,.1,0,.2"/>
</svg>