<?xml version="1.0" encoding="utf-8"?>
<!-- Generator: Adobe Illustrator 28.1.0, SVG Export Plug-In . SVG Version: 6.00 Build 0)  -->
<svg version="1.1" id="Capa_1" xmlns="http://www.w3.org/2000/svg" xmlns:xlink="http://www.w3.org/1999/xlink" x="0px" y="0px"
	 viewBox="0 0 36.2 68.5" style="enable-background:new 0 0 36.2 68.5;" xml:space="preserve">
<style type="text/css">
	.st0{fill:#0099CC;}
</style>
<path id="Trazado_9" class="st0" d="M36.1,30.2l-0.9,7c-0.1,1.2-1.1,2-2.3,2H21.7v29.1c-1.2,0.1-2.4,0.2-3.6,0.2
	c-2.7,0-5.3-0.3-8-0.8V39.2H1.4c-0.8,0-1.4-0.7-1.4-1.5V29c0-0.8,0.6-1.4,1.4-1.5h8.7v-13c0-8,6.5-14.5,14.5-14.5l0,0h10.1
	c0.8,0,1.4,0.7,1.4,1.5v8.7c0,0.8-0.6,1.4-1.4,1.5h-7.2c-3.2,0-5.8,2.6-5.8,5.8v10.2h12.1c1.3,0,2.3,1,2.3,2.3
	C36.2,30,36.1,30.1,36.1,30.2"/>
</svg>
