<?xml version="1.0" encoding="UTF-8"?><svg id="Capa_2" xmlns="http://www.w3.org/2000/svg" xmlns:xlink="http://www.w3.org/1999/xlink" viewBox="0 0 3509.57 512.85"><defs><style>.cls-1{clip-path:url(#clippath);}.cls-2{fill:none;}.cls-2,.cls-3,.cls-4{stroke-width:0px;}.cls-3{fill:#23485a;}.cls-4{fill:#09c;}</style><clipPath id="clippath"><path class="cls-2" d="M.27,0h3493.03c8.98,0,16.27,7.29,16.27,16.27v486.87c0,5.36-4.35,9.71-9.71,9.71H.27V0H.27Z"/></clipPath></defs><g id="Capa_7"><path class="cls-3" d="M.27,0h3493.03c8.98,0,16.27,7.29,16.27,16.27v486.87c0,5.36-4.35,9.71-9.71,9.71H.27V0H.27Z"/><path class="cls-4" d="M0,.68h290.96v35c0,141.27-114.69,255.96-255.96,255.96H0V.68H0Z"/><g class="cls-1"><path class="cls-4" d="M3089.99,222.87c-229.08,0-414.78,185.71-414.78,414.78h.05c0,.34-.05.67-.05,1.02v167.97c137.06,0,258.55-66.51,334.07-168.99h153.57c188.84,0,341.93-153.09,341.93-341.93v-72.86h-414.78Z"/></g></g></svg>