<?xml version="1.0" encoding="UTF-8"?><svg id="Capa_2" xmlns="http://www.w3.org/2000/svg" xmlns:xlink="http://www.w3.org/1999/xlink" viewBox="0 0 3235.57 653.49"><defs><style>.cls-1{clip-path:url(#clippath);}.cls-2{fill:none;}.cls-2,.cls-3,.cls-4{stroke-width:0px;}.cls-3{fill:#23485a;}.cls-4{fill:#09c;}</style><clipPath id="clippath"><path class="cls-2" d="M.35,0h3218.95c8.98,0,16.27,7.29,16.27,16.27v627.5c0,5.36-4.35,9.71-9.71,9.71H.35V0H.35Z"/></clipPath></defs><g id="Capa_7"><path class="cls-3" d="M.35,0h3218.95c8.98,0,16.27,7.29,16.27,16.27v627.5c0,5.36-4.35,9.71-9.71,9.71H.35V0H.35Z"/><path class="cls-4" d="M0,.87h326.16C326.16,180.88,180.01,327.02,0,327.02H0V.87H0Z"/><g class="cls-1"><path class="cls-4" d="M2919.76,344.65c-171.66,0-310.81,139.16-310.81,310.81h.04c0,.26-.04.5-.04.76v125.87c102.7,0,193.74-49.84,250.33-126.63h115.08c141.5,0,256.22-114.71,256.22-256.22v-54.6h-310.81Z"/></g></g></svg>