<?xml version="1.0" encoding="UTF-8"?>
<svg id="Capa_1" xmlns="http://www.w3.org/2000/svg" version="1.1" viewBox="0 0 54.6 54.6">
  <!-- Generator: Adobe Illustrator 29.1.0, SVG Export Plug-In . SVG Version: 2.1.0 Build 142)  -->
  <defs>
    <style>
      .st0 {
        fill: #0fbcd6;
      }
    </style>
  </defs>
  <g id="Grupo_14">
    <path id="Trazado_10" class="st0" d="M41.5,0H13.3C6,0,0,5.9,0,13.2v28.2c0,7.3,5.9,13.2,13.2,13.2h28.2c7.3,0,13.2-5.9,13.2-13.2V13.2C54.7,5.9,48.8,0,41.5,0M49.9,40.5c0,5.2-4.2,9.4-9.4,9.4H14.1c-5.2,0-9.4-4.2-9.4-9.4V14.1c0-5.2,4.2-9.4,9.4-9.4h26.4c5.2,0,9.4,4.2,9.4,9.4v26.4Z"/>
    <path id="Trazado_11" class="st0" d="M27.4,13.1c-7.8,0-14.1,6.3-14.1,14.1s6.3,14.1,14.1,14.1,14.1-6.3,14.1-14.1c0-7.7-6.3-14-14.1-14.1M27.4,36.7c-5.2,0-9.4-4.2-9.4-9.4s4.2-9.4,9.4-9.4,9.4,4.2,9.4,9.4h0c0,5.2-4.2,9.4-9.4,9.4"/>
    <path id="Trazado_12" class="st0" d="M42.4,15c-1.6,0-2.8-1.3-2.8-2.8s1.3-2.8,2.8-2.8,2.8,1.3,2.8,2.8c.1,1.6-1.2,2.8-2.8,2.8"/>
  </g>
</svg>