<?xml version="1.0" encoding="utf-8"?>
<!-- Generator: Adobe Illustrator 28.1.0, SVG Export Plug-In . SVG Version: 6.00 Build 0)  -->
<svg version="1.1" id="Capa_1" xmlns="http://www.w3.org/2000/svg" xmlns:xlink="http://www.w3.org/1999/xlink" x="0px" y="0px"
	 viewBox="0 0 54.6 54.6" style="enable-background:new 0 0 54.6 54.6;" xml:space="preserve">
<style type="text/css">
	.st0{fill:#0099CC;}
</style>
<g id="Grupo_14" transform="translate(-880.749 -3544.374)">
	<path id="Trazado_10" class="st0" d="M922.2,3544.4H894c-7.3,0-13.2,5.9-13.2,13.2v28.2c0,7.3,5.9,13.2,13.2,13.2h28.2
		c7.3,0,13.2-5.9,13.2-13.2v-28.2C935.4,3550.3,929.5,3544.4,922.2,3544.4 M930.6,3584.9c0,5.2-4.2,9.4-9.4,9.4h-26.4
		c-5.2,0-9.4-4.2-9.4-9.4v-26.4c0-5.2,4.2-9.4,9.4-9.4h26.4c5.2,0,9.4,4.2,9.4,9.4V3584.9z"/>
	<path id="Trazado_11" class="st0" d="M908.1,3557.5c-7.8,0-14.1,6.3-14.1,14.1s6.3,14.1,14.1,14.1s14.1-6.3,14.1-14.1
		C922.2,3563.9,915.9,3557.6,908.1,3557.5 M908.1,3581.1c-5.2,0-9.4-4.2-9.4-9.4s4.2-9.4,9.4-9.4s9.4,4.2,9.4,9.4l0,0
		C917.5,3576.9,913.3,3581.1,908.1,3581.1"/>
	<path id="Trazado_12" class="st0" d="M923.1,3559.4c-1.6,0-2.8-1.3-2.8-2.8s1.3-2.8,2.8-2.8c1.6,0,2.8,1.3,2.8,2.8
		C926,3558.2,924.7,3559.4,923.1,3559.4"/>
</g>
</svg>
