<?xml version="1.0" encoding="utf-8"?>
<!-- Generator: Adobe Illustrator 28.1.0, SVG Export Plug-In . SVG Version: 6.00 Build 0)  -->
<svg version="1.1" id="Capa_1" xmlns="http://www.w3.org/2000/svg" xmlns:xlink="http://www.w3.org/1999/xlink" x="0px" y="0px"
	 viewBox="0 0 50.3 51.4" style="enable-background:new 0 0 50.3 51.4;" xml:space="preserve">
<style type="text/css">
	.st0{fill:#0099CC;}
</style>
<g id="Grupo_15" transform="translate(-1051.911 -3544.353)">
	<path id="Trazado_5" class="st0" d="M1065.3,3551.1c0,3.7-3,6.7-6.7,6.7s-6.7-3-6.7-6.7s3-6.7,6.7-6.7l0,0
		C1062.3,3544.4,1065.3,3547.4,1065.3,3551.1"/>
	<path id="Trazado_6" class="st0" d="M1063.7,3595.8h-10.2c-0.3,0-0.5-0.2-0.5-0.5v-32.5c0-0.3,0.2-0.5,0.5-0.5h10.2
		c0.3,0,0.5,0.2,0.5,0.5v32.5C1064.2,3595.5,1064,3595.8,1063.7,3595.8"/>
	<path id="Trazado_7" class="st0" d="M1102.2,3574.5v19c0,1.2-1,2.2-2.2,2.2h-6.7c-1.2,0-2.2-1-2.2-2.2v-15.6c0-3.1-2.5-5.6-5.6-5.6
		s-5.6,2.5-5.6,5.6v15.6c0,1.2-1,2.2-2.2,2.2h-6.7c-1.2,0-2.2-1-2.2-2.2v-29.1c0-1.2,1-2.2,2.2-2.2h6.7c1.2,0,2.2,1,2.2,2.2v1.4
		c2.4-3.1,6.1-4.8,10.1-4.8C1096.1,3561.1,1102.2,3565.6,1102.2,3574.5"/>
</g>
</svg>
