<?xml version="1.0" encoding="UTF-8"?>
<svg id="Capa_1" xmlns="http://www.w3.org/2000/svg" version="1.1" viewBox="0 0 50.3 51.4">
  <!-- Generator: Adobe Illustrator 29.1.0, SVG Export Plug-In . SVG Version: 2.1.0 Build 142)  -->
  <defs>
    <style>
      .st0 {
        fill: #0fbcd6;
      }
    </style>
  </defs>
  <g id="Grupo_15">
    <path id="Trazado_5" class="st0" d="M13.4,6.7c0,3.7-3,6.7-6.7,6.7S0,10.4,0,6.7,3,0,6.7,0h0c3.7,0,6.7,3,6.7,6.7"/>
    <path id="Trazado_6" class="st0" d="M11.8,51.4H1.6c-.3,0-.5-.2-.5-.5V18.4c0-.3.2-.5.5-.5h10.2c.3,0,.5.2.5.5v32.5c0,.2-.2.5-.5.5"/>
    <path id="Trazado_7" class="st0" d="M50.3,30.1v19c0,1.2-1,2.2-2.2,2.2h-6.7c-1.2,0-2.2-1-2.2-2.2v-15.6c0-3.1-2.5-5.6-5.6-5.6s-5.6,2.5-5.6,5.6v15.6c0,1.2-1,2.2-2.2,2.2h-6.7c-1.2,0-2.2-1-2.2-2.2v-29.1c0-1.2,1-2.2,2.2-2.2h6.7c1.2,0,2.2,1,2.2,2.2v1.4c2.4-3.1,6.1-4.8,10.1-4.8,6.1.1,12.2,4.6,12.2,13.5"/>
  </g>
</svg>