<?xml version="1.0" encoding="utf-8"?>
<!-- Generator: Adobe Illustrator 28.1.0, SVG Export Plug-In . SVG Version: 6.00 Build 0)  -->
<svg version="1.1" id="Capa_2_00000105405907498053242800000017156556372455139257_"
	 xmlns="http://www.w3.org/2000/svg" xmlns:xlink="http://www.w3.org/1999/xlink" x="0px" y="0px" viewBox="0 0 40.4 52.8"
	 style="enable-background:new 0 0 40.4 52.8;" xml:space="preserve">
<style type="text/css">
	.st0{fill:#23485A;}
</style>
<g id="Capa_1-2">
	<path class="st0" d="M20.2,4L20.2,4c4.3,0,8.4,1.7,11.5,4.8c3,3,4.7,7.2,4.7,11.5c0,5-4.3,14.8-16.2,27.9C12.1,39.2,4,27.6,4,20.2
		c0-4.3,1.7-8.4,4.7-11.4C11.8,5.7,15.9,4,20.2,4 M20.2,30.7L20.2,30.7c2.8,0,5.4-1.1,7.4-3.1s3.1-4.6,3.1-7.4
		c0-4.3-2.5-8.1-6.5-9.7c-1.3-0.5-2.6-0.8-4-0.8c-2.8,0-5.4,1.1-7.4,3.1c-3,3-3.9,7.5-2.3,11.5S15.9,30.7,20.2,30.7 M20.2,0
		C14.8,0,9.7,2.1,5.9,5.9S0,14.8,0,20.2c0,11.1,13.5,26.6,18.4,31.9c0.5,0.5,1.1,0.8,1.8,0.8s1.3-0.3,1.8-0.8
		c5-5.3,18.5-20.8,18.5-31.9c0-5.4-2.1-10.5-5.9-14.3C30.7,2.1,25.6,0,20.2,0L20.2,0z M20.2,26.7c-2.6,0-5-1.6-6-4s-0.4-5.2,1.4-7.1
		c1.2-1.2,2.9-1.9,4.6-1.9c0.8,0,1.7,0.2,2.5,0.5c2.4,1,4,3.4,4,6c0,1.7-0.7,3.4-1.9,4.6S21.9,26.7,20.2,26.7L20.2,26.7L20.2,26.7z"
		/>
</g>
</svg>
