<?xml version="1.0" encoding="UTF-8"?>
<svg id="Capa_2" xmlns="http://www.w3.org/2000/svg" version="1.1" viewBox="0 0 40.4 52.8">
  <!-- Generator: Adobe Illustrator 29.1.0, SVG Export Plug-In . SVG Version: 2.1.0 Build 142)  -->
  <defs>
    <style>
      .st0 {
        fill: #00499f;
      }
    </style>
  </defs>
  <g id="Capa_1-2">
    <path class="st0" d="M20.2,4h0c4.3,0,8.4,1.7,11.5,4.8s4.7,7.2,4.7,11.5-4.3,14.8-16.2,27.9C12.1,39.2,4,27.6,4,20.2s1.7-8.4,4.7-11.4c3.1-3.1,7.2-4.8,11.5-4.8M20.2,30.7h0c2.8,0,5.4-1.1,7.4-3.1s3.1-4.6,3.1-7.4c0-4.3-2.5-8.1-6.5-9.7-1.3-.5-2.6-.8-4-.8-2.8,0-5.4,1.1-7.4,3.1-3,3-3.9,7.5-2.3,11.5s5.4,6.4,9.7,6.4M20.2,0C14.8,0,9.7,2.1,5.9,5.9,2.1,9.7,0,14.8,0,20.2c0,11.1,13.5,26.6,18.4,31.9.5.5,1.1.8,1.8.8s1.3-.3,1.8-.8c5-5.3,18.5-20.8,18.5-31.9s-2.1-10.5-5.9-14.3C30.7,2.1,25.6,0,20.2,0h0ZM20.2,26.7c-2.6,0-5-1.6-6-4s-.4-5.2,1.4-7.1c1.2-1.2,2.9-1.9,4.6-1.9s1.7.2,2.5.5c2.4,1,4,3.4,4,6s-.7,3.4-1.9,4.6-2.9,1.9-4.6,1.9h0Z"/>
  </g>
</svg>