<?xml version="1.0" encoding="utf-8"?>
<!-- Generator: Adobe Illustrator 28.1.0, SVG Export Plug-In . SVG Version: 6.00 Build 0)  -->
<svg version="1.1" id="Capa_2_00000002363428374514792550000004806009860863230382_"
	 xmlns="http://www.w3.org/2000/svg" xmlns:xlink="http://www.w3.org/1999/xlink" x="0px" y="0px" viewBox="0 0 42.5 59.5"
	 style="enable-background:new 0 0 42.5 59.5;" xml:space="preserve">
<style type="text/css">
	.st0{fill:#0099CC;}
</style>
<g id="Capa_1-2">
	<path class="st0" d="M41.8,45.6L38,37.9c-0.8-1.5-2.1-2.7-3.8-3.2c-1.6-0.5-3.3-0.3-4.8,0.5l-6,3.2c-2.1-2-3.9-4.4-5.2-7
		C16.9,28.8,16,26,15.6,23l6.1-3.2c3.1-1.6,4.3-5.5,2.6-8.6l-3.9-7.7c-0.8-1.5-2.1-2.7-3.8-3.2C15.1-0.2,13.4,0,12,0.7L3.4,5.4
		C1.1,6.6-0.2,9,0,11.5c0.7,9,3.1,17.7,7.2,25.7c4,8,9.6,15,16.4,20.8c1.1,1,2.6,1.5,4.1,1.5c1,0,2-0.2,2.9-0.7l8.7-4.6
		C42.3,52.5,43.4,48.7,41.8,45.6L41.8,45.6L41.8,45.6z M37.2,50.4L28.5,55c-0.7,0.3-1.5,0.2-2.1-0.3C20,49.3,14.8,42.7,11,35.2
		S4.9,19.5,4.2,11.1C4.1,10.2,4.5,9.4,5.3,9L14,4.5c0.3-0.1,0.6-0.2,0.9-0.2c0.2,0,0.4,0,0.6,0c0.6,0.2,1,0.6,1.2,1.1l3.9,7.7
		c0.3,0.5,0.4,1.1,0.2,1.7c-0.2,0.6-0.5,1-1.1,1.3l-6.1,3.2c-1.5,0.9-2.4,2.5-2.1,4.2c0.5,3.4,1.5,6.7,3.1,9.7c1.5,3,3.5,5.8,6,8.1
		c1.3,1.2,3.2,1.5,4.8,0.7l6.1-3.2c0.5-0.2,1-0.3,1.5-0.1s1,0.6,1.2,1.1l3.9,7.7c0.3,0.5,0.4,1.2,0.3,1.8
		C38.2,49.7,37.8,50.2,37.2,50.4L37.2,50.4L37.2,50.4z"/>
</g>
</svg>
