<?xml version="1.0" encoding="UTF-8"?>
<svg id="Capa_2" xmlns="http://www.w3.org/2000/svg" version="1.1" viewBox="0 0 42.5 59.5">
  <!-- Generator: Adobe Illustrator 29.1.0, SVG Export Plug-In . SVG Version: 2.1.0 Build 142)  -->
  <defs>
    <style>
      .st0 {
        fill: #0fbcd6;
      }
    </style>
  </defs>
  <g id="Capa_1-2">
    <path class="st0" d="M41.8,45.6l-3.8-7.7c-.8-1.5-2.1-2.7-3.8-3.2-1.6-.5-3.3-.3-4.8.5l-6,3.2c-2.1-2-3.9-4.4-5.2-7-1.3-2.6-2.2-5.4-2.6-8.4l6.1-3.2c3.1-1.6,4.3-5.5,2.6-8.6l-3.9-7.7c-.8-1.5-2.1-2.7-3.8-3.2C15.1-.2,13.4,0,12,.7L3.4,5.4C1.1,6.6-.2,9,0,11.5c.7,9,3.1,17.7,7.2,25.7,4,8,9.6,15,16.4,20.8,1.1,1,2.6,1.5,4.1,1.5s2-.2,2.9-.7l8.7-4.6c3-1.7,4.1-5.5,2.5-8.6h0ZM37.2,50.4l-8.7,4.6c-.7.3-1.5.2-2.1-.3-6.4-5.4-11.6-12-15.4-19.5s-6.1-15.7-6.8-24.1c0-.9.3-1.7,1.1-2.1l8.7-4.5c.3,0,.6-.2.9-.2h.6c.6.2,1,.6,1.2,1.1l3.9,7.7c.3.5.4,1.1.2,1.7-.2.6-.5,1-1.1,1.3l-6.1,3.2c-1.5.9-2.4,2.5-2.1,4.2.5,3.4,1.5,6.7,3.1,9.7,1.5,3,3.5,5.8,6,8.1,1.3,1.2,3.2,1.5,4.8.7l6.1-3.2c.5-.2,1-.3,1.5,0s1,.6,1.2,1.1l3.9,7.7c.3.5.4,1.2.3,1.8-.2.4-.6.9-1.2,1.1h0Z"/>
  </g>
</svg>