<?xml version="1.0" encoding="UTF-8"?>
<svg id="Capa_1" xmlns="http://www.w3.org/2000/svg" version="1.1" viewBox="0 0 49.5 59.8">
  <!-- Generator: Adobe Illustrator 29.1.0, SVG Export Plug-In . SVG Version: 2.1.0 Build 142)  -->
  <defs>
    <style>
      .st0 {
        fill: #0fbcd6;
      }
    </style>
  </defs>
  <path id="Trazado_8" class="st0" d="M35.1,43.3v-25.8s2.9,4.8,13.4,5.1c.6,0,1-.4,1-1h0v-7.3c0-.5-.4-1-1-1-8.2-.5-12-6.7-12.4-12.4C36.1.4,35.6,0,35.1,0h-8.3C26.2,0,25.8.4,25.8,1v41c.1,4.5-3.4,8.2-7.9,8.5-4.6.2-8.4-3.3-8.6-7.9-.2-4.2,2.8-7.9,7.1-8.6.7,0,1.4,0,2.1,0,.6,0,1.1-.3,1.1-.9h0v-7.4c0-.5-.4-1-.9-1-1.1-.1-2.1,0-3.2.1C5.9,26-1,34.7.1,44.3c1.1,9.7,9.9,16.6,19.5,15.4,8.8-1,15.5-8.5,15.5-17.4"/>
</svg>