<?xml version="1.0" encoding="utf-8"?>
<!-- Generator: Adobe Illustrator 28.1.0, SVG Export Plug-In . SVG Version: 6.00 Build 0)  -->
<svg version="1.1" id="Capa_1" xmlns="http://www.w3.org/2000/svg" xmlns:xlink="http://www.w3.org/1999/xlink" x="0px" y="0px"
	 viewBox="0 0 49.5 59.8" style="enable-background:new 0 0 49.5 59.8;" xml:space="preserve">
<style type="text/css">
	.st0{fill:#0099CC;}
</style>
<path id="Trazado_8" class="st0" d="M35.1,43.3V17.5c0,0,2.9,4.8,13.4,5.1c0.6,0,1-0.4,1-1l0,0v-7.3c0-0.5-0.4-1-1-1
	c-8.2-0.5-12-6.7-12.4-12.4c0-0.5-0.5-0.9-1-0.9h-8.3c-0.6,0-1,0.4-1,1v41c0.1,4.5-3.4,8.2-7.9,8.5c-4.6,0.2-8.4-3.3-8.6-7.9
	c-0.2-4.2,2.8-7.9,7.1-8.6c0.7-0.1,1.4-0.1,2.1,0c0.6,0.1,1.1-0.3,1.1-0.9V33v-7.3c0-0.5-0.4-1-0.9-1c-1.1-0.1-2.1,0-3.2,0.1
	C5.9,26-1,34.7,0.1,44.3C1.2,54,10,60.9,19.6,59.7c8.8-1,15.5-8.5,15.5-17.4"/>
</svg>
