<?xml version="1.0" encoding="UTF-8"?>
<svg id="Capa_1" xmlns="http://www.w3.org/2000/svg" version="1.1" viewBox="0 0 60.9 44.1">
  <!-- Generator: Adobe Illustrator 29.1.0, SVG Export Plug-In . SVG Version: 2.1.0 Build 142)  -->
  <defs>
    <style>
      .st0 {
        fill: #0fbcd6;
      }
    </style>
  </defs>
  <path id="Trazado_13" class="st0" d="M52.9,0H8C3.6,0,0,3.6,0,8v28.1c0,4.4,3.6,8,8,8h44.9c4.4,0,8-3.6,8-8V8C60.9,3.6,57.3,0,52.9,0M37.7,24l-12.5,6.2c-1.1.5-2.4.1-2.9-1-.2-.3-.2-.6-.2-1v-12.4c0-1.2,1-2.2,2.2-2.2s.7.1,1,.2l12.5,6.2c1.1.5,1.5,1.8,1,2.9-.4.5-.7.9-1.1,1.1"/>
</svg>