<?xml version="1.0" encoding="utf-8"?>
<!-- Generator: Adobe Illustrator 28.1.0, SVG Export Plug-In . SVG Version: 6.00 Build 0)  -->
<svg version="1.1" id="Capa_1" xmlns="http://www.w3.org/2000/svg" xmlns:xlink="http://www.w3.org/1999/xlink" x="0px" y="0px"
	 viewBox="0 0 60.9 44.1" style="enable-background:new 0 0 60.9 44.1;" xml:space="preserve">
<style type="text/css">
	.st0{fill:#0099CC;}
</style>
<path id="Trazado_13" class="st0" d="M52.9,0H8C3.6,0,0,3.6,0,8v28.1c0,4.4,3.6,8,8,8l0,0h44.9c4.4,0,8-3.6,8-8V8
	C60.9,3.6,57.3,0,52.9,0 M37.7,24l-12.5,6.2c-1.1,0.5-2.4,0.1-2.9-1c-0.2-0.3-0.2-0.6-0.2-1V15.8c0-1.2,1-2.2,2.2-2.2
	c0.3,0,0.7,0.1,1,0.2L37.8,20c1.1,0.5,1.5,1.8,1,2.9C38.4,23.4,38.1,23.8,37.7,24"/>
</svg>
